<svg width="25" height="26" viewBox="0 0 25 26" xmlns="http://www.w3.org/2000/svg"><g fill="#1F8CEB"><path d="M20 11.5H4a.5.5 0 0 0-.5.5v13a.5.5 0 0 0 .5.5h16a.5.5 0 0 0 .5-.5V12a.5.5 0 0 0-.5-.5zm0 1l-.5-.5v13l.5-.5H4l.5.5V12l-.5.5h16z"></path><path d="M1.5 23v-8.684c0-1.05.587-1.816 1.5-1.816h2a.5.5 0 0 0 0-1H3c-1.532 0-2.5 1.262-2.5 2.816V23a.5.5 0 0 0 1 0zm23 0v-8.684c0-1.554-.968-2.816-2.5-2.816h-2a.5.5 0 0 0 0 1h2c.913 0 1.5.765 1.5 1.816V23a.5.5 0 0 0 1 0zM10.354 2.646l-2-2a.502.502 0 0 0-.708.708l2 2a.502.502 0 0 0 .708-.708zm3 .708l2-2a.502.502 0 0 0-.708-.708l-2 2a.502.502 0 0 0 .708.708z"></path><path d="M20.486 9.882C19.556 6.07 16.12 3.5 12.006 3.5 7.87 3.5 4.42 6.074 3.514 9.884A.5.5 0 0 0 4 10.5h16a.5.5 0 0 0 .486-.618zm-.972.236L20 9.5H4l.486.616c.797-3.35 3.837-5.616 7.52-5.616 3.66 0 6.69 2.265 7.508 5.618z"></path><path d="M9.5 6v1h1V6h-1zm4 0v1h1V6h-1z"></path></g></svg>