<svg width="18" height="24" viewBox="0 0 18 24" xmlns="http://www.w3.org/2000/svg"><g fill="#1F8CEB"><path d="M17.5 23H.5l.5.5V.5L.5 1h11l-.354-.146 6 6L17 6.5v17l.5-.5zm0 1a.5.5 0 0 0 .5-.5v-17a.504.504 0 0 0-.146-.354l-6-6A.502.502 0 0 0 11.5 0H.5a.5.5 0 0 0-.5.5v23a.5.5 0 0 0 .5.5h17z"></path><path d="M11 .5v6a.5.5 0 0 0 .5.5h6a.5.5 0 0 0 0-1h-6l.5.5v-6a.5.5 0 0 0-1 0zM14.5 20h-11l.5.5v-12l-.5.5h11l-.5-.5v12l.5-.5zm0 1a.5.5 0 0 0 .5-.5v-12a.5.5 0 0 0-.5-.5h-11a.5.5 0 0 0-.5.5v12a.5.5 0 0 0 .5.5h11z"></path><path d="M3.5 12h11a.5.5 0 0 0 0-1h-11a.5.5 0 0 0 0 1zm0 3h11a.5.5 0 0 0 0-1h-11a.5.5 0 0 0 0 1zm0 3h11a.5.5 0 0 0 0-1h-11a.5.5 0 0 0 0 1z"></path><path d="M7 8.5v12a.5.5 0 0 0 1 0v-12a.5.5 0 0 0-1 0z"></path></g></svg>