<svg width="23" height="26" viewBox="0 0 23 26" xmlns="http://www.w3.org/2000/svg"><g fill="#1F8CEB"><path d="M22.344 18.232a1.074 1.074 0 0 0-.023-.126 1.33 1.33 0 0 0-.66-.923 1.377 1.377 0 0 0-.39-.14c-.06-.01-.06-.01-.092-.013h-.007.018l-.067.44.433.1c.11-.485.03-.918-.15-1.266l-.4.206.31.317c.147-.143.255-.263.35-.386a1.5 1.5 0 0 0 .22-.43c.03-.09.045-.19.056-.29.006-.09.006-.1.007-.15v-.1a1.79 1.79 0 0 0-.163-.69 1.634 1.634 0 0 0-.682-.74l-.215.39.36-.254a5.306 5.306 0 0 0-.878-.97 7.223 7.223 0 0 0-.38-.303l-.236-.172a3.235 3.235 0 0 0-.276-.182 2.013 2.013 0 0 1-.15-.095l.01.01-.33.294.43-.12a.297.297 0 0 1-.01-.063c0-.08 0-.204.01-.38.01-.14.066-.975.084-1.263a5.29 5.29 0 0 0 .007-.545 3.7 3.7 0 0 0-.106-.78c-.01-.05-.027-.1-.045-.16l-.03-.092-.04-.11a2.97 2.97 0 0 0-.11-.25 3.007 3.007 0 0 0-.23-.352l-.35.275.432-.094a4.255 4.255 0 0 0-.174-.594 3.49 3.49 0 0 0-.35-.693 2.34 2.34 0 0 0-.195-.255l-.34.29.324.305a9.193 9.193 0 0 0 1.28-1.737c.9-1.59.864-2.86.17-3.774-.54-.605-1.206-.944-2.02-1.047-.72-.09-1.51.007-2.34.242a9.325 9.325 0 0 0-1.456.55l.525.103-.79-.882a2.028 2.028 0 0 0-.3-.273 2.18 2.18 0 0 0-.34-.203 2.48 2.48 0 0 0-.75-.21c-.49-.06-1.037-.01-1.642.15-.85.223-1.795.648-2.78 1.25A19.1 19.1 0 0 0 4.908 4.3C3.734 5.38 2.734 6.554 1.99 7.7a10.897 10.897 0 0 0-.888 1.643c-.232.55-.38 1.06-.438 1.537A3.05 3.05 0 0 0 .7 11.93c.037.15.086.3.15.438.085.185.195.354.328.503l.927.99.324-.3-.39-.22-.037.068L2 13.41c-.02.036-.02.036-.04.078-.043.088-.052.106-.074.156-.038.088-.054.124-.068.162-.03.075-.04.11-.058.157-.03.088-.038.12-.054.17a4.055 4.055 0 0 0-.045.17l-.02.117-.02.12.44.07c-.443-.036-.45-.006-.456.06a1.93 1.93 0 0 0-.016.137v.004c-.007.078-.01.106-.01.15l-.007.106-.002.075v.125l.008.144.008.093.014.136.017.107.02.115.03.14.005.02v.005l.02.072.01.04.01.033.025.098.027.08.026.084.03.09.01.024v.003c.02.046.02.046.024.06l.034.08.04.09.034.073.04.08a.14.14 0 0 1 .02.037l.02.034.05.085.023.04c.014.026.014.026.02.034l.054.085.07.1.364.19c-.32-.126-.32-.126-.296-.098l.075.093c.055.067.07.088.1.12a.714.714 0 0 0 .05.054l.005.005.063.07.04.04.01.01.087.083c.067.06.1.09.14.124.088.072.088.072.13.104.05.04.05.04.067.05l.067.05.125.085.037.026.032.02.12.07c.063.036.106.06.152.08.064.034.064.034.093.047v.002l.07.03.073.03.087.033c.11.04.14.05.17.06.06.02.113.035.17.05l.146.036a2.48 2.48 0 0 0 .29.057l.06.005v-.443l-.414.15c.075.21.15.395.227.58 1.15 3.24 4.342 5.735 7.96 6.19 3.576.454 7.502-1.896 9.132-5.315.057-.105.12-.23.18-.357l-.403-.19.32.31a2.17 2.17 0 0 0 .427-.617 1.724 1.724 0 0 0 .14-.94zm-.882.108c.003.027.006.052.006.076a.866.866 0 0 1-.074.388c-.055.12-.14.242-.26.368l-.08.118c-.054.112-.11.223-.17.334-1.48 3.104-5.046 5.238-8.23 4.836-3.286-.415-6.194-2.687-7.24-5.63-.084-.198-.15-.367-.22-.562l-.09-.253-.268-.036-.06-.01h.06a1.094 1.094 0 0 1-.09-.017h-.002c-.052-.01-.076-.014-.124-.025l-.112-.03a1.602 1.602 0 0 1-.128-.037l-.135-.047-.055-.023.005.003-.007-.003c-.03-.01-.03-.01-.058-.022l-.05-.022h-.004L4 17.72c-.03-.014-.063-.032-.115-.06l-.083-.05-.027-.017-.024-.012-.1-.07-.05-.03-.05-.033-.1-.082c-.02-.02-.05-.04-.1-.09.004.003.004.003 0 0l-.062-.06-.004-.004-.04-.04-.05-.054-.002-.005-.034-.04-.075-.09-.053-.072-.05-.07-.36-.183.36.19-.054-.083-.04-.06c0 .003 0 .003-.015-.02l-.015-.03-.04-.07-.01-.02c-.01-.017-.01-.017-.015-.03l-.04-.07-.023-.053-.033-.07-.02-.056-.02-.055h-.01l-.004-.016c-.012-.03-.012-.03-.02-.06-.01-.02-.01-.02-.026-.07l-.02-.06v.004l-.02-.076-.01-.025-.01-.036-.02-.066c0-.01 0-.01-.002-.012l-.02-.11-.014-.082-.014-.085-.01-.11-.005-.066-.008-.11v-.153.007l.01-.1.01-.107v-.002l.01-.11.016-.093-.438-.075c.44.06.44.06.456-.027 0-.005 0-.005.018-.08v.003l.036-.133c.01-.034.02-.06.04-.13v.01c.014-.04.024-.07.05-.133l.05-.12c.01-.027.02-.046.057-.12l.028-.054.01-.01.03-.052.16-.284-.223-.236-.92-.98a1.133 1.133 0 0 1-.175-.27 1.483 1.483 0 0 1-.09-.263 2.187 2.187 0 0 1-.02-.746c.047-.387.17-.82.374-1.3.2-.474.476-.98.815-1.506.703-1.082 1.655-2.2 2.773-3.233a17.95 17.95 0 0 1 2.82-2.16c.916-.56 1.783-.95 2.54-1.15.505-.13.94-.17 1.308-.124.18.02.34.066.48.132a1.117 1.117 0 0 1 .358.262l.786.884.223.25.3-.145a8.483 8.483 0 0 1 1.318-.495c.72-.205 1.4-.29 1.984-.215.606.076 1.075.315 1.443.73.456.594.48 1.48-.252 2.77a8.434 8.434 0 0 1-1.153 1.57l-.27.29.26.305c.046.06.09.116.126.17a2.6 2.6 0 0 1 .26.52c.06.165.107.325.14.47l.083.18c.05.066.09.128.155.238.01.017.025.054.064.15a.54.54 0 0 1 .026.065l.024.066a2.924 2.924 0 0 1 .114.71 4.68 4.68 0 0 1-.01.457c-.014.28-.073 1.12-.08 1.27-.01.2-.015.354-.01.467.004.096.015.17.04.264l.1.18c.046.05.066.066.112.1.054.044.132.095.234.158.062.035.124.075.2.13l.235.176c.115.086.22.17.33.263.267.23.51.492.73.805l.143.13a.773.773 0 0 1 .31.34.912.912 0 0 1 .083.353v.05c0 .008 0 .03-.003.088a.58.58 0 0 1-.112.28 2.45 2.45 0 0 1-.25.27l-.236.23.152.294a.94.94 0 0 1 .07.657l-.11.484.494.056-.02-.004.026.003.03.002a.416.416 0 0 1 .334.288c.01.023.015.05.022.09.01.035.01.04.01.045z"></path><path d="M5.69 11.98l.208-.206a51.835 51.835 0 0 1 2.384-2.207c.266-.232.524-.45.773-.655.695-.57 1.303-1.015 1.797-1.307 2.077-1.23 3.458-1.716 5.023-1.716.633 0 1.182.27 1.652.75.29.29.484.59.574.77l.8-.39a4.096 4.096 0 0 0-.74-1.008C17.54 5.39 16.78 5 15.88 5c-1.75 0-3.274.535-5.477 1.84-.54.32-1.18.79-1.906 1.385-.256.21-.52.434-.793.67a51.99 51.99 0 0 0-1.85 1.69 52.31 52.31 0 0 0-.793.768l.63.627zm.877 1.153c-.464-.472-1.27-.73-1.964-.62-.862.137-1.422.79-1.422 1.82 0 1.44.17 2.05.69 2.644.09.094.15.164.32.335.27.27.618.397 1 .405.3.006.6-.056.9-.162a3.11 3.11 0 0 0 .27-.108l.077-.038.023-.02.004-.007h.003l-.42-.785-.014.006-.05.025a4.72 4.72 0 0 1-.196.08 1.694 1.694 0 0 1-.58.11c-.17-.004-.293-.05-.383-.14a6.275 6.275 0 0 1-.283-.298c-.352-.405-.463-.815-.463-2.06 0-.59.24-.872.67-.94.415-.065.93.1 1.19.364l.636-.622zm3.183 2.534c-1.603 0-1.974 4.405-.317 6.09.995 1.01 3.013 1.91 4.692 1.91.93 0 1.395-.006 1.966-.034 1.79-.086 2.98-.356 3.61-.988l-.63-.623c-.406.412-1.454.648-3.01.723a36.33 36.33 0 0 1-1.924.033c-1.433 0-3.225-.8-4.06-1.645-1.2-1.217-.913-4.577-.316-4.577v-.89z"></path><path d="M12.058 18.2c.93.945 3.528 1.323 5.63 1.018.777-.113 1.583-.446 2.39-.93.346-.207.67-.43.962-.65.177-.135.305-.24.378-.304l-.586-.668a9.848 9.848 0 0 1-1.21.86c-.715.426-1.42.718-2.06.81-1.85.268-4.193-.073-4.87-.76l-.634.623z"></path><ellipse cx="13.688" cy="13.444" rx=".438" ry=".889"></ellipse><ellipse cx="16.313" cy="13.889" rx=".438" ry=".444"></ellipse><ellipse cx="17.188" cy="12.556" rx=".438" ry=".889"></ellipse><path d="M10.143 15.903a6.266 6.266 0 0 1-.14-.288c-.107-.236-.215-.5-.316-.78-.268-.752-.435-1.497-.454-2.18-.01-.32.016-.62.076-.893.33-1.518.99-2.1 3.26-3.255.46-.234 1.122-.347 1.94-.347.65 0 1.36.072 2.06.192.422.072.75.143.935.19l.22-.862a16.634 16.634 0 0 0-1.008-.205 13.462 13.462 0 0 0-2.214-.203c-.94 0-1.73.134-2.34.443-2.493 1.267-3.325 2-3.73 3.857a4.64 4.64 0 0 0-.097 1.108c.02.79.207 1.62.504 2.453a10.906 10.906 0 0 0 .504 1.187l.787-.417z"></path></g></svg>