<svg width="24" height="24" viewBox="0 0 24 24" xmlns="http://www.w3.org/2000/svg"><g fill="#1F8CEB"><path d="M2.707 22.708a1 1 0 1 1-1.413-1.415l6.57-6.57h-.707l2.12 2.12v-.707l-6.57 6.572zm.707.707l6.57-6.572a.5.5 0 0 0 0-.707l-2.12-2.12a.5.5 0 0 0-.707 0l-6.57 6.57a1.998 1.998 0 0 0 0 2.828c.777.78 2.045.782 2.827 0z"></path><path d="M6.097 13.66l4.24 4.243a.5.5 0 0 0 .708-.707l-4.24-4.242a.502.502 0 0 0-.708 0 .5.5 0 0 0 0 .707z"></path><path d="M19.396 3.896L8.208 15.084l.708.708L20.104 4.604l-.708-.708z"></path><path d="M20.854 4.646l-1.5-1.5v.708l3-3h-.708l1.5 1.5v-.708l-3 3h.708zm-.708.708a.502.502 0 0 0 .708 0l3-3a.502.502 0 0 0 0-.708l-1.5-1.5a.502.502 0 0 0-.708 0l-3 3a.502.502 0 0 0 0 .708l1.5 1.5zm-7.793 4.17L8.608 5.78l.106.548a4.495 4.495 0 0 0-.96-4.937C6.444.08 4.564-.272 2.89.43a.5.5 0 0 0-.15.82l1.987 1.915-.153-.36v2.27l.5-.5h-2.27l.36.152L1.252 2.74a.5.5 0 0 0-.82.15 4.44 4.44 0 0 0 .96 4.9c1.304 1.305 3.256 1.655 4.938.944l-.548-.106 3.746 3.735.706-.708L6.486 7.92a.5.5 0 0 0-.548-.107 3.49 3.49 0 0 1-3.84-.73 3.435 3.435 0 0 1-.748-3.8l-.82.152L2.446 5.42c.094.1.224.154.36.154h2.27a.5.5 0 0 0 .5-.5v-2.27a.503.503 0 0 0-.154-.36L3.434.532l-.152.82c1.3-.548 2.746-.273 3.766.748a3.496 3.496 0 0 1 .748 3.84.498.498 0 0 0 .106.548l3.745 3.745.708-.706zm-.708 4.95l3.747 3.748-.106-.55a4.5 4.5 0 0 0 .96 4.94 4.505 4.505 0 0 0 4.937.96.502.502 0 0 0 .16-.816l-1.916-1.914.147.354v-2.122l-.5.5h2.12l-.353-.146 1.918 1.914a.5.5 0 0 0 .814-.16 4.497 4.497 0 0 0-5.897-5.896l.55.107-3.746-3.746-.71.707 3.745 3.746c.144.144.36.186.55.107a3.5 3.5 0 0 1 3.84.746 3.5 3.5 0 0 1 .746 3.84l.813-.158-1.914-1.914a.508.508 0 0 0-.356-.143h-2.12a.5.5 0 0 0-.5.5V21.2a.5.5 0 0 0 .146.353l1.914 1.915.16-.815a3.504 3.504 0 0 1-3.842-.746 3.496 3.496 0 0 1-.748-3.84.5.5 0 0 0-.106-.55L12.35 13.77l-.708.706z"></path></g></svg>