<?xml version="1.0" encoding="utf-8"?>
<!-- Generator: Adobe Illustrator 18.0.0, SVG Export Plug-In . SVG Version: 6.00 Build 0)  -->
<!DOCTYPE svg PUBLIC "-//W3C//DTD SVG 1.1//EN" "http://www.w3.org/Graphics/SVG/1.1/DTD/svg11.dtd">
<svg version="1.1" id="Layer_1" xmlns="http://www.w3.org/2000/svg" xmlns:xlink="http://www.w3.org/1999/xlink" x="0px" y="0px"
	 viewBox="0 0 375.9 332.9" enable-background="new 0 0 375.9 332.9" xml:space="preserve">
<g>
	<line fill="none" stroke="#000000" stroke-miterlimit="10" x1="25.9" y1="321.5" x2="375.9" y2="321.5"/>
	<g>
		<g>
			<line fill="none" stroke="#000000" stroke-miterlimit="10" x1="25.4" y1="321" x2="25.4" y2="314"/>
			<line fill="none" stroke="#000000" stroke-miterlimit="10" x1="69.4" y1="321" x2="69.4" y2="314"/>
			<line fill="none" stroke="#000000" stroke-miterlimit="10" x1="113.4" y1="321" x2="113.4" y2="314"/>
			<line fill="none" stroke="#000000" stroke-miterlimit="10" x1="156.4" y1="321" x2="156.4" y2="314"/>
			<line fill="none" stroke="#000000" stroke-miterlimit="10" x1="200.4" y1="321" x2="200.4" y2="314"/>
			<line fill="none" stroke="#000000" stroke-miterlimit="10" x1="244.4" y1="321" x2="244.4" y2="314"/>
			<line fill="none" stroke="#000000" stroke-miterlimit="10" x1="288.4" y1="321" x2="288.4" y2="314"/>
			<line fill="none" stroke="#000000" stroke-miterlimit="10" x1="332.4" y1="321" x2="332.4" y2="314"/>
			<line fill="none" stroke="#000000" stroke-miterlimit="10" x1="375.4" y1="321" x2="375.4" y2="314"/>
		</g>
		<g>
		</g>
	</g>
</g>
<g>
	<g>
		
			<text transform="matrix(1 0 0 1 0.7188 327.5615)" fill="#112F99" stroke="#EDF3FC" stroke-miterlimit="10" font-family="'OpenSans-Extrabold'" font-size="16.4289">20</text>
		
			<text transform="matrix(1 0 0 1 0.7188 249.3164)" fill="#112F99" stroke="#EDF3FC" stroke-miterlimit="10" font-family="'OpenSans-Extrabold'" font-size="16.4289">30</text>
		
			<text transform="matrix(1 0 0 1 0.7188 171.0703)" fill="#112F99" stroke="#EDF3FC" stroke-miterlimit="10" font-family="'OpenSans-Extrabold'" font-size="16.4289">40</text>
		
			<text transform="matrix(1 0 0 1 0.7188 92.8242)" fill="#112F99" stroke="#EDF3FC" stroke-miterlimit="10" font-family="'OpenSans-Extrabold'" font-size="16.4289">50</text>
		
			<text transform="matrix(1 0 0 1 0.7188 14.5781)" fill="#112F99" stroke="#EDF3FC" stroke-miterlimit="10" font-family="'OpenSans-Extrabold'" font-size="16.4289">60</text>
	</g>
	<line fill="none" stroke="#000000" stroke-miterlimit="10" x1="25.4" y1="321" x2="25.4" y2="8"/>
	<g>
		<g>
			<line fill="none" stroke="#000000" stroke-miterlimit="10" x1="25.9" y1="321.5" x2="33.9" y2="321.5"/>
			<line fill="none" stroke="#000000" stroke-miterlimit="10" x1="25.9" y1="243.5" x2="33.9" y2="243.5"/>
			<line fill="none" stroke="#000000" stroke-miterlimit="10" x1="25.9" y1="164.5" x2="33.9" y2="164.5"/>
			<line fill="none" stroke="#000000" stroke-miterlimit="10" x1="25.9" y1="86.5" x2="33.9" y2="86.5"/>
			<line fill="none" stroke="#000000" stroke-miterlimit="10" x1="25.9" y1="8.5" x2="33.9" y2="8.5"/>
		</g>
		<g>
		</g>
	</g>
</g>
<g>
	<g>
		<g>
			<line fill="none" stroke="#7CA2E5" stroke-width="5" stroke-miterlimit="10" x1="91.2" y1="297.9" x2="47.4" y2="321.4"/>
			<line fill="none" stroke="#7CA2E5" stroke-width="5" stroke-miterlimit="10" x1="135" y1="305.8" x2="91.2" y2="297.9"/>
			<line fill="none" stroke="#7CA2E5" stroke-width="5" stroke-miterlimit="10" x1="178.8" y1="258.8" x2="135" y2="305.8"/>
			<line fill="none" stroke="#7CA2E5" stroke-width="5" stroke-miterlimit="10" x1="222.6" y1="133.6" x2="178.8" y2="258.8"/>
			<line fill="none" stroke="#7CA2E5" stroke-width="5" stroke-miterlimit="10" x1="266.4" y1="118" x2="222.6" y2="133.6"/>
			<line fill="none" stroke="#7CA2E5" stroke-width="5" stroke-miterlimit="10" x1="310.2" y1="55.4" x2="266.4" y2="118"/>
			<line fill="none" stroke="#7CA2E5" stroke-width="5" stroke-miterlimit="10" x1="354" y1="24.1" x2="310.2" y2="55.4"/>
		</g>
	</g>
</g>
<rect x="88.4" y="294.5" stroke="#000000" stroke-miterlimit="10" width="6" height="6"/>
<rect x="132.4" y="302.5" stroke="#000000" stroke-miterlimit="10" width="6" height="6"/>
<rect x="175.4" y="255.5" stroke="#000000" stroke-miterlimit="10" width="6" height="6"/>
<rect x="219.4" y="130.5" stroke="#000000" stroke-miterlimit="10" width="6" height="6"/>
<rect x="263.4" y="114.5" stroke="#000000" stroke-miterlimit="10" width="6" height="6"/>
<rect x="307.4" y="52.5" stroke="#000000" stroke-miterlimit="10" width="6" height="6"/>
<rect x="351.4" y="21.5" stroke="#000000" stroke-miterlimit="10" width="6" height="6"/>
<circle fill="#9CBDEF" stroke="#DAE3F7" stroke-width="3" stroke-miterlimit="10" cx="47.4" cy="321.4" r="8.1"/>
<circle fill="#9CBDEF" stroke="#DAE3F7" stroke-width="3" stroke-miterlimit="10" cx="91.4" cy="298.4" r="8.1"/>
<circle fill="#9CBDEF" stroke="#DAE3F7" stroke-width="3" stroke-miterlimit="10" cx="135.4" cy="305.4" r="8.1"/>
<circle fill="#9CBDEF" stroke="#DAE3F7" stroke-width="3" stroke-miterlimit="10" cx="178.4" cy="258.4" r="8.1"/>
<circle fill="#9CBDEF" stroke="#DAE3F7" stroke-width="3" stroke-miterlimit="10" cx="222.4" cy="133.4" r="8.1"/>
<circle fill="#9CBDEF" stroke="#DAE3F7" stroke-width="3" stroke-miterlimit="10" cx="266.4" cy="117.4" r="8.1"/>
<circle fill="#9CBDEF" stroke="#DAE3F7" stroke-width="3" stroke-miterlimit="10" cx="310.4" cy="56.4" r="8.1"/>
<circle fill="#9CBDEF" stroke="#DAE3F7" stroke-width="3" stroke-miterlimit="10" cx="354.4" cy="24.4" r="8.1"/>
</svg>
