<?xml version="1.0" encoding="utf-8"?>
<!-- Generator: Adobe Illustrator 18.0.0, SVG Export Plug-In . SVG Version: 6.00 Build 0)  -->
<!DOCTYPE svg PUBLIC "-//W3C//DTD SVG 1.1//EN" "http://www.w3.org/Graphics/SVG/1.1/DTD/svg11.dtd">
<svg version="1.1" id="Layer_1" xmlns="http://www.w3.org/2000/svg" xmlns:xlink="http://www.w3.org/1999/xlink" x="0px" y="0px"
	 viewBox="0 0 211.3 183.8" enable-background="new 0 0 211.3 183.8" xml:space="preserve">
<text transform="matrix(1 0 0 1 163.6845 177.1375)" fill="#00AAE2" font-family="'OpenSans-Semibold'" font-size="23.7439">42%</text>
<g>
	<g>
		<g>
			<path fill="#93FF00" stroke="#FFFFFF" stroke-width="4" stroke-miterlimit="10" d="M85.3,87.1L30.6,21.9C46.6,8.5,65.3,2,85.3,2
				V87.1z"/>
		</g>
	</g>
	<g>
		<g>
			<path fill="#00C9FF" stroke="#FFFFFF" stroke-width="4" stroke-miterlimit="10" d="M87.2,87.1l-68.8,50
				C-8,100.8-1.9,50.7,32.5,21.9L87.2,87.1z"/>
		</g>
	</g>
	<g>
		<g>
			<path fill="#FF7E45" stroke="#FFFFFF" stroke-width="4" stroke-miterlimit="10" d="M87.2,87.1l14.8,83.8
				c-32.9,5.8-64-6.7-83.6-33.8L87.2,87.1z"/>
		</g>
	</g>
	<g>
		<g>
			<path fill="#178DFF" stroke="#FFFFFF" stroke-width="4" stroke-miterlimit="10" d="M87.2,87.1l82.5,20.6
				c-8.3,33.4-33.9,57.2-67.8,63.2L87.2,87.1z"/>
		</g>
	</g>
	<g>
		<g>
			<path fill="#5E19CC" stroke="#FFFFFF" stroke-width="4" stroke-miterlimit="10" d="M85.3,87.1V2c47,0,86,38.1,86,85.1
				c0,7.3-1.2,13.5-3,20.6L85.3,87.1z"/>
		</g>
	</g>
</g>
<line fill="none" stroke="#1E00E7" stroke-width="4" stroke-miterlimit="10" x1="128.4" y1="129.6" x2="158.3" y2="154.6"/>
<line fill="none" stroke="#FFFFFF" stroke-width="4" stroke-miterlimit="10" x1="128.4" y1="131.6" x2="158.3" y2="156.6"/>
</svg>
