<?xml version="1.0" encoding="utf-8"?>
<!-- Generator: Adobe Illustrator 18.0.0, SVG Export Plug-In . SVG Version: 6.00 Build 0)  -->
<!DOCTYPE svg PUBLIC "-//W3C//DTD SVG 1.1//EN" "http://www.w3.org/Graphics/SVG/1.1/DTD/svg11.dtd">
<svg version="1.1" id="Layer_1" xmlns="http://www.w3.org/2000/svg" xmlns:xlink="http://www.w3.org/1999/xlink" x="0px" y="0px"
	 viewBox="0 0 121 121" enable-background="new 0 0 121 121" xml:space="preserve">
<path display="none" fill="none" stroke="#112f99" stroke-miterlimit="10" d="M60.5,120C27.7,120,1,93.3,1,60.5
	C1,27.7,27.7,1,60.5,1S120,27.7,120,60.5C120,93.3,93.3,120,60.5,120z"/>
<g>
	<path fill="#112f99" d="M61,73.4c-0.5,0-1-0.2-1.4-0.5L21.7,41.3c-0.2,0.6-0.3,1.1-0.3,1.8v39.8c0,3.3,2.7,5.6,6.1,5.6h66.9
		c3.3,0,6.1-2.3,6.1-5.6V43.1c0-0.6-0.1-1.2-0.3-1.8L62.4,72.9C62,73.2,61.5,73.4,61,73.4z"/>
	<path fill="#112f99" d="M97.3,38c-0.9-0.5-1.9-0.5-2.9-0.5H27.5c-1.1,0-2,0.1-2.9,0.5L61,68.4L97.3,38z"/>
</g>
</svg>
