<?xml version="1.0" encoding="utf-8"?>
<!-- Generator: Adobe Illustrator 18.0.0, SVG Export Plug-In . SVG Version: 6.00 Build 0)  -->
<!DOCTYPE svg PUBLIC "-//W3C//DTD SVG 1.1//EN" "http://www.w3.org/Graphics/SVG/1.1/DTD/svg11.dtd">
<svg version="1.1" id="Layer_1" xmlns="http://www.w3.org/2000/svg" xmlns:xlink="http://www.w3.org/1999/xlink" x="0px" y="0px"
	 viewBox="0 0 121 121" enable-background="new 0 0 121 121" xml:space="preserve">
<path display="none" fill="none" stroke="#112f99" stroke-width="2" stroke-miterlimit="10" d="M60.5,120C27.7,120,1,93.3,1,60.5
	C1,27.7,27.7,1,60.5,1S120,27.7,120,60.5C120,93.3,93.3,120,60.5,120z"/>
<path fill="#112f99" d="M76.3,24.8H63.1c0,0-0.1,0-0.1,0c-13.3,0-15.1,9.3-15.1,17.5c0,0.1,0,0.2,0,0.2v5.7h-9.1c-0.6,0-1,0.4-1,1
	v14.1c0,0.6,0.4,1,1,1h9.1v30.9c0,0.6,0.4,1,1,1h13.3c0.6,0,1-0.4,1-1V64.3h13.1c0.6,0,1-0.4,1-1V49.2c0-0.6-0.4-1-1-1H62.2v-7.6
	h14.1c0.6,0,1-0.4,1-1V25.8C77.3,25.3,76.8,24.8,76.3,24.8z"/>
</svg>
