<?xml version="1.0" encoding="utf-8"?>
<!-- Generator: Adobe Illustrator 18.0.0, SVG Export Plug-In . SVG Version: 6.00 Build 0)  -->
<!DOCTYPE svg PUBLIC "-//W3C//DTD SVG 1.1//EN" "http://www.w3.org/Graphics/SVG/1.1/DTD/svg11.dtd">
<svg version="1.1" id="Layer_1" xmlns="http://www.w3.org/2000/svg" xmlns:xlink="http://www.w3.org/1999/xlink" x="0px" y="0px"
	 viewBox="0 0 121 121" enable-background="new 0 0 121 121" xml:space="preserve">
<path display="none" fill="none" stroke="#112f99" stroke-width="2" stroke-miterlimit="10" d="M60.5,120C27.7,120,1,93.3,1,60.5
	C1,27.7,27.7,1,60.5,1S120,27.7,120,60.5C120,93.3,93.3,120,60.5,120z"/>
<rect x="29.6" y="46.9" fill="#112f99" width="14.1" height="36.7"/>
<ellipse fill="#112f99" cx="36.5" cy="34.5" rx="7.1" ry="6.5"/>
<path fill="#112f99" d="M79.1,46c-2.9,0-5.3,0.5-7.3,1.6c-2,1-4,2.8-5.9,5.2v-6H52.7v36.7h14.1V66c0-3.3,0.5-5.7,1.6-7
	c1.1-1.3,2.4-1.9,4.2-1.9c1.5,0,2.7,0.5,3.6,1.4s1.3,2.6,1.3,4.9v20.2h14.1V60.2c0-4.8-1.1-8.4-3.3-10.7C86,47.2,83,46,79.1,46z"/>
</svg>
