<?xml version="1.0" encoding="utf-8"?>
<!-- Generator: Adobe Illustrator 18.0.0, SVG Export Plug-In . SVG Version: 6.00 Build 0)  -->
<!DOCTYPE svg PUBLIC "-//W3C//DTD SVG 1.1//EN" "http://www.w3.org/Graphics/SVG/1.1/DTD/svg11.dtd">
<svg version="1.1" id="Layer_1" xmlns="http://www.w3.org/2000/svg" xmlns:xlink="http://www.w3.org/1999/xlink" x="0px" y="0px"
	 viewBox="0 0 121 121" enable-background="new 0 0 121 121" xml:space="preserve">
<path display="none" fill="none" stroke="#112f99" stroke-miterlimit="10" d="M60.5,120C27.7,120,1,93.3,1,60.5
	C1,27.7,27.7,1,60.5,1S120,27.7,120,60.5C120,93.3,93.3,120,60.5,120z"/>
<path fill="#112f99" d="M60.5,24C38.1,24,20,40.1,20,60c0,9.5,4.1,18.1,10.9,24.6c-0.9,2.8-2.7,5.5-5.9,5.9c0,0,8.7,4.6,15.1,0.6
	c6,3.1,13,4.9,20.4,4.9C82.8,96,101,79.9,101,60S82.8,24,60.5,24z"/>
<text transform="matrix(1 0 0 1 31.4586 69.3883)" fill="#FFFFFF" font-family="'OpenSans-Extrabold'" font-size="27.558">SMS</text>
</svg>
