<?xml version="1.0" encoding="utf-8"?>
<!-- Generator: Adobe Illustrator 18.0.0, SVG Export Plug-In . SVG Version: 6.00 Build 0)  -->
<!DOCTYPE svg PUBLIC "-//W3C//DTD SVG 1.1//EN" "http://www.w3.org/Graphics/SVG/1.1/DTD/svg11.dtd">
<svg version="1.1" id="Layer_1" xmlns="http://www.w3.org/2000/svg" xmlns:xlink="http://www.w3.org/1999/xlink" x="0px" y="0px"
	 viewBox="0 0 121 121" enable-background="new 0 0 121 121" xml:space="preserve">
<path display="none" fill="none" stroke="#112f99" stroke-width="2" stroke-miterlimit="10" d="M60.5,120C27.7,120,1,93.3,1,60.5
	C1,27.7,27.7,1,60.5,1S120,27.7,120,60.5C120,93.3,93.3,120,60.5,120z"/>
<path fill="#112f99" d="M87.7,40.7c1.4-0.7,4.7-2.9,6.3-7.5c0,0-3.8,2.8-9,3.1l-0.1,0.1c-2.6-2.9-6.5-4.7-10.7-4.7
	c-8,0-14.5,6.5-14.5,14.5c0,1.2,0.2,2.4,0.4,3.5l-0.1-0.1c0,0-15.5,0.9-30.2-15.1c0,0-6.5,11,4.6,19.4c-2.4,0.4-6.7-1.8-6.7-1.8
	s0.2,11.6,11.7,14.4c-1.9,0.5-5.3,0.6-6.5,0.2c0,0,1.7,8.8,13.4,10.4c-3,1.7-8.6,6.9-21.2,5.9c0,0,9.1,7.4,25.9,6.4s29-12.4,34-24.3
	s3.6-18.8,3.6-18.8s4.1-2.2,7-7.3c-1.3,0.4-6.2,1.6-8,2C87.7,40.8,87.7,40.7,87.7,40.7z"/>
</svg>
