<svg width="24" height="24" viewBox="0 0 24 24" xmlns="http://www.w3.org/2000/svg"><g fill="#1F8CEB"><path d="M1.47 22.974h21.55v-5.877h-5.878v.49a2.45 2.45 0 0 1-2.45 2.45h-4.407a2.453 2.453 0 0 1-2.45-2.45v-.49H1.47v5.877zm22.04.98H.98a.49.49 0 0 1-.49-.49v-6.857c0-.27.22-.49.49-.49h7.346c.27 0 .49.22.49.49v.98c0 .813.66 1.47 1.47 1.47h4.407c.81 0 1.47-.657 1.47-1.47v-.98c0-.27.22-.49.49-.49h6.857c.27 0 .49.22.49.49v6.857c0 .27-.22.49-.49.49z"></path><path d="M23.51 17.097a.495.495 0 0 1-.423-.24L19.8 11.22h-5.107a.49.49 0 0 1 0-.98h5.388c.18 0 .34.093.43.245l3.43 5.877a.49.49 0 0 1-.424.735m-22.532 0a.495.495 0 0 1-.246-.064.49.49 0 0 1-.177-.67l3.43-5.878a.486.486 0 0 1 .42-.245h2.45a.49.49 0 0 1 0 .98H4.69l-3.287 5.637a.493.493 0 0 1-.423.24"></path><path d="M19.102 1.952v.94c0 .27-.22.49-.49.49-3.84 0-6.568 1.788-8.11 5.315a13.454 13.454 0 0 0-.717 2.11c1.398-2.114 4.032-4.486 8.827-4.486.27 0 .49.227.49.49v.947l3.624-2.9-3.624-2.9zM8.817 14.648h-.05a.49.49 0 0 1-.44-.49c0-.112.113-11.378 9.795-11.745V.933c0-.185.108-.357.278-.44.17-.078.37-.06.518.06l4.898 3.917a.492.492 0 0 1 .184.382c0 .152-.068.29-.184.382l-4.898 3.918a.486.486 0 0 1-.518.06.485.485 0 0 1-.278-.442V7.31c-7.383.275-8.77 6.667-8.826 6.946a.49.49 0 0 1-.48.392z"></path></g></svg>