<svg width="20" height="24" viewBox="0 0 20 24" xmlns="http://www.w3.org/2000/svg"><path d="M16.322 13.283c-.01-1.11.384-2.04 1.055-2.81.224-.258.465-.48.707-.666.148-.113.09-.074.36-.248a.5.5 0 0 0 .143-.71c-1.125-1.64-2.767-2.31-4.377-2.37-.84-.09-1.635.09-2.747.52-1.297.5-1.227.472-1.447.472-.246 0-.364-.04-1.386-.44-.916-.36-1.53-.522-2.217-.51-2.02.032-3.89 1.17-4.935 2.984-1.82 3.16-.94 8.126 1.406 11.516 1.472 2.13 2.43 3.026 3.87 2.97.576-.022.992-.14 1.634-.413l.168-.07c.708-.3 1.105-.408 1.748-.408.61 0 .986.102 1.656.39l.168.074c.684.3 1.136.416 1.783.405 1.48-.026 2.32-.82 3.74-2.893a12.595 12.595 0 0 0 1.47-2.92c.05-.13.12-.35.1-.3a.502.502 0 0 0-.26-.617 3.202 3.202 0 0 1-.422-.21 4.617 4.617 0 0 1-.9-.67c-.81-.763-1.295-1.77-1.306-3.072zm-1 .01c.014 1.586.62 2.845 1.617 3.793a5.46 5.46 0 0 0 1.6 1.065l.2-.45-.478-.16a11.228 11.228 0 0 1-.358.97 11.5 11.5 0 0 1-1.093 2.01c-1.23 1.808-1.91 2.44-2.93 2.46-.48.01-.802-.074-1.37-.32l-.164-.07c-.785-.336-1.28-.47-2.053-.47-.802 0-1.32.14-2.14.487l-.164.07c-.54.23-.854.32-1.286.336-.947.035-1.74-.706-3.007-2.54-2.147-3.105-2.956-7.68-1.36-10.45.87-1.513 2.42-2.455 4.085-2.48.52-.01 1.03.124 1.833.438 1.22.48 1.313.51 1.75.51.255 0 .527-.062.882-.185a11 11 0 0 0 .452-.165l.47-.186c.976-.376 1.643-.528 2.315-.46 1.356.06 2.707.604 3.624 1.944l.41-.28-.27-.42c-.303.19-.25.155-.43.294a5.87 5.87 0 0 0-.853.8c-.823.944-1.315 2.104-1.3 3.477zM13.64 4.49c.95-1.15 1.464-2.636 1.31-4.045A.503.503 0 0 0 14.432 0c-1.3.053-2.83.84-3.748 1.916C9.74 3.01 9.17 4.514 9.348 5.866c.03.234.22.415.457.433 1.386.1 2.867-.64 3.835-1.81zm-.77-.636c-.774.934-1.953 1.53-2.988 1.448l.457.434c-.14-1.04.33-2.272 1.1-3.168.74-.873 2.02-1.527 3.03-1.57l-.52-.444c.12 1.124-.3 2.348-1.09 3.3z" fill="#1F8CEB"></path></svg>