<svg width="25" height="20" viewBox="0 0 25 20" xmlns="http://www.w3.org/2000/svg"><g fill="#1F8CEB"><path d="M23.013 17.493a1.5 1.5 0 0 1-1.5 1.5h-19c-.83 0-1.5-.67-1.5-1.5v-14c0-.828.67-1.5 1.5-1.5h19a1.5 1.5 0 0 1 1.5 1.5v14zm1 0v-14a2.5 2.5 0 0 0-2.5-2.5h-19a2.5 2.5 0 0 0-2.5 2.5v14a2.5 2.5 0 0 0 2.5 2.5h19a2.5 2.5 0 0 0 2.5-2.5z"></path><path d="M.513 6.993h23a.5.5 0 0 0 0-1h-23a.5.5 0 0 0 0 1zm3.5-3zm1 0a1 1 0 1 0-2 0 1 1 0 0 0 2 0zm2 0zm1 0a1 1 0 1 0-2 0 1 1 0 0 0 2 0zm2 0zm1 0a1 1 0 1 0-2 0 1 1 0 0 0 2 0z"></path></g></svg>