<svg width="26" height="25" viewBox="0 0 26 25" xmlns="http://www.w3.org/2000/svg"><title>Icon_Rails</title><g fill="#1F8CEB" fill-rule="evenodd"><path d="M3.687 24.488h12.358l-.313-.704a14.83 14.83 0 0 1-.306-.756 28.073 28.073 0 0 1-.683-2.035c-.682-2.32-1.06-4.653-.98-6.815.014-.398.045-.786.09-1.165.528-4.255 3.778-7.18 6.834-7.508 1.008-.11 1.87.103 2.592.52.34.204.58.4.68.52l.42.476.36-.53.522-.77.23-.34-.292-.29a8.66 8.66 0 0 0-.58-.51c-.46-.375-.98-.75-1.56-1.1-1.894-1.144-3.942-1.766-6.054-1.58-4.173.37-7.445 2.908-9.63 6.916-2.12 3.89-3.06 6.217-3.754 9.586-.47 2.3-.578 4.09-.475 5.353.012.156.026.264.035.325l.07.42h.427zm0-1l.494.42a4.833 4.833 0 0 1-.02-.248c-.09-1.167.01-2.863.46-5.068.67-3.26 1.578-5.498 3.65-9.31 2.04-3.734 5.04-6.058 8.84-6.396 1.88-.166 3.72.395 5.45 1.44.54.323 1.02.67 1.448 1.017.25.205.424.363.51.448l-.062-.63-.522.78.788-.05c-.17-.19-.48-.456-.93-.716-.892-.52-1.965-.782-3.2-.65-3.5.377-7.13 3.645-7.715 8.38-.05.408-.083.825-.1 1.25-.084 2.285.31 4.718 1.02 7.135.227.764.468 1.473.71 2.11a17 17 0 0 0 .327.805l.455-.704H3.69z"></path><path d="M1.34 18.732l2.266.172-.455-.585-.39 2.23.55-.41-2.13-.26.44.55.26-2.147-.53.44zm.076-.997L.94 17.7l-.058.473-.26 2.147-.062.497.497.06 2.135.257.47.057.082-.46.392-2.23.096-.54-.55-.04-2.266-.174zM5.42 13.68l.61-1.673.168-.46-.457-.178-2-.78-.47-.19-.17.48-.654 1.805-.18.49.5.157 2.047.644.457.144.162-.45zm-.94-.34l.62-.307-2.047-.644.32.64.654-1.808-.65.296 2.004.772-.29-.64-.61 1.675zm3.682-5.26l1.176-1.373.372-.434-.48-.31-1.524-.988-.355-.23-.28.31-1.22 1.332-.39.433.49.323 1.57 1.03.367.243.286-.335zm-.76-.65l.655-.092-1.568-1.03.09.755 1.22-1.33-.64.08 1.52.99-.11-.746L7.4 7.43zm3.09-4.677l1.046 1.245.267.32.362-.207 1.438-.81.54-.3-.415-.463-1.046-1.16-.256-.283-.342.173-1.437.73-.57.285.4.484zm.766-.643l-.156.767 1.437-.73-.6-.11 1.04 1.158.12-.77-1.437.817.63.113L11.25 2.11zm4.225-.993l.26 1.245.087.408.416-.01 1.786-.043.57-.014-.088-.563-.175-1.117-.07-.403-.41-.02-1.87-.085-.647-.03.132.632zm.98-.205l-.514.602 1.87.086-.47-.422.17 1.116.48-.577-1.79.043.5.397-.26-1.245zm5.065 1.405l-.043.773-.018.32.284.15 1.22.644.4.21.25-.372.26-.386.28-.403-.394-.284-1.437-1.03-.74-.53-.053.9zm1 .057l-.792.378 1.438 1.03.29-.406-.413-.28-.26.386.42.28.238-.442-1.22-.644.266.47.044-.772zm-1.262 3.278v1.092l.446.05 1.176.128.554.06V5.506l-.393-.086-1.18-.257-.61-.132v.63zm1 0l-.607.488 1.17.258-.4-.49v.517l.556-.497-1.177-.13.444.498v-.644zm-4.684.798l.566 1.03.282.515.463-.36.828-.644.26-.2-.08-.31-.17-.69-.12-.48-.48.12-1.22.3-.63.16.314.57zm.876-.48l-.32.726 1.22-.3-.603-.364.174.687.17-.52-.83.64.742.15-.566-1.03zM15.82 7.822l.87 1.288-.018-.53-.523.9.8-.087-1.27-1.373-.04.71.914-.82-.748-.092zm.827-.56l-.32-.474-.426.38-.91.816-.38.338.35.374 1.266 1.374.46.5.34-.588.523-.902.16-.27-.178-.26-.873-1.29zm-2.602 3.618l-.566 1.116-.18.353.3.25 1.48 1.24.61.515.19-.78.35-1.418.08-.323-.268-.196-1.263-.945-.477-.358-.27.53zm.892.452l-.745.174 1.263.944-.186-.52-.35 1.418.8-.263-1.48-1.246.12.6.567-1.12zm-1.555 3.652l-.087 1.503-.02.352.324.13 1.83.77.74.31-.05-.804-.09-1.417-.02-.284-.25-.13-1.66-.86-.684-.354-.045.77zm.998.058l-.73.415 1.656.858-.27-.413.088 1.417.694-.5-1.83-.776.305.49.087-1.503zm-.457 5.43l.435 1.547.097.34.357.02 2.308.13.856.04-.38-.77-.827-1.676-.14-.278h-2.89l.18.634zm.962-.27l-.48.636h1.915l-.448-.28.828 1.676.476-.72-2.31-.13.455.364-.43-1.546z"></path></g></svg>