<svg width="17" height="26" viewBox="0 0 17 26" xmlns="http://www.w3.org/2000/svg"><path d="M16.553 17.29c0-1.638-.532-3.085-1.563-4.25-.915-1.075-1.745-1.62-4.432-2.934C8.7 9.184 7.94 8.744 7.288 8.22c-.566-.48-.89-1.152-.89-1.843 0-1.387 1.064-2.286 2.798-2.286.886 0 1.73.22 2.345.61.58.34.89.66 1.6 1.628l.16.22.27-.02.53-.03.36-.024.095-.35.26-1.004.485-1.6.45-1.2.17-.464-.46-.18C13.55.936 12.79.73 11.43.6 10.94.533 10.397.5 9.85.5 4.47.5.76 3.61.76 8.19c0 1.742.634 3.33 1.782 4.47.96.918 1.834 1.455 4.44 2.747 1.925 1.02 2.6 1.448 3.168 2.013.457.454.733 1.135.733 1.815 0 1.605-1.35 2.706-3.418 2.706-1.033 0-2.01-.32-2.875-.94-.573-.42-.86-.75-1.544-1.75l-.18-.26-.315.055-.58.097-.34.057-.064.34-.26 1.36-.39 1.597-.384 1.23-.136.44.424.17c1.66.668 2.383.86 3.94 1.07.682.07 1.352.1 1.993.1 5.67 0 9.805-3.43 9.805-8.21h-1v1.99c1-.25 1-.25 1-1.986zm-1 0v1.988c1-.248 1-.248 1-.993v-.994h-1c0 4.18-3.652 7.21-8.806 7.21a19.09 19.09 0 0 1-1.877-.09c-1.456-.19-2.1-.37-3.684-1l.292.616.39-1.264.402-1.65.266-1.382-.41.4.588-.097-.494-.212c.74 1.086 1.096 1.49 1.78 2 1.04.748 2.22 1.135 3.465 1.135 2.58 0 4.418-1.5 4.418-3.703 0-.946-.38-1.88-1.03-2.527-.66-.655-1.395-1.124-3.415-2.192-2.534-1.255-3.336-1.75-4.2-2.574-.946-.95-1.478-2.28-1.478-3.76 0-3.984 3.23-6.69 8.09-6.69.51 0 1.01.032 1.47.093 1.28.12 1.95.305 3.77 1.008l-.29-.64-.45 1.23-.5 1.65-.267 1.027.453-.376-.522.03.434.203c-.785-1.064-1.18-1.467-1.875-1.88-.774-.49-1.804-.752-2.87-.752C6.946 3.095 5.4 4.4 5.4 6.38c0 .99.456 1.938 1.252 2.615.735.59 1.545 1.058 3.466 2.01 2.575 1.26 3.31 1.742 4.12 2.694.872.98 1.317 2.19 1.317 3.59z" fill="#1F8CEB"></path></svg>