 <svg width="24" height="15" viewBox="0 0 24 15" xmlns="http://www.w3.org/2000/svg"><g fill="#1F8CEB"><path d="M23 12.5a1.5 1.5 0 0 1-1.5 1.5h-19A1.5 1.5 0 0 1 1 12.5v-10A1.5 1.5 0 0 1 2.5 1h19A1.5 1.5 0 0 1 23 2.5v10zm1 0v-10A2.5 2.5 0 0 0 21.5 0h-19A2.5 2.5 0 0 0 0 2.5v10A2.5 2.5 0 0 0 2.5 15h19a2.5 2.5 0 0 0 2.5-2.5z"></path><path d="M.5 5h23a.5.5 0 0 0 0-1H.5a.5.5 0 0 0 0 1zm20 2h-3a.5.5 0 0 0 0 1h3a.5.5 0 0 0 0-1zm-9 0h-8a.5.5 0 0 0 0 1h8a.5.5 0 0 0 0-1zm-5 2h-3a.5.5 0 0 0 0 1h3a.5.5 0 0 0 0-1z"></path></g></svg>