<svg width="24" height="24" viewBox="0 0 24 24" xmlns="http://www.w3.org/2000/svg"><g fill="#1F8CEB"><path d="M2 12.048c0 3.937 2.45 7.34 6 8.952L2.922 8A9.37 9.37 0 0 0 2 12.048M18.998 12c0-1.302-.47-2.204-.874-2.905-.536-.868-1.04-1.602-1.04-2.47 0-.968.74-1.87 1.78-1.87.046 0 .09.007.136.01A10.577 10.577 0 0 0 11.848 2 10.59 10.59 0 0 0 3 6.746c.25.008.483.013.68.013 1.11 0 2.824-.14 2.824-.14.57-.032.638.8.068.87 0 0-.574.067-1.212.1L9.216 19l2.318-6.912-1.65-4.495c-.57-.033-1.11-.1-1.11-.1-.57-.033-.504-.9.066-.868 0 0 1.75.134 2.79.134 1.107 0 2.822-.14 2.822-.14.57-.032.64.8.068.87 0 0-.575.067-1.212.1l3.827 11.32 1.056-3.51c.46-1.454.81-2.5.81-3.4"></path><path d="M11.93 13L9 21.598a9.66 9.66 0 0 0 6-.158.815.815 0 0 1-.07-.135l-3-8.305zm8.838-6c.043.332.068.688.068 1.07 0 1.058-.19 2.246-.765 3.732L17 21c2.99-1.806 5-5.16 5-9.003 0-1.81-.446-3.514-1.232-4.997"></path><path d="M12 23.45C5.686 23.45.55 18.313.55 12 .55 5.686 5.686.55 12 .55 18.313.55 23.45 5.686 23.45 12c0 6.313-5.137 11.45-11.45 11.45M12 0C5.383 0 0 5.383 0 12s5.383 12 12 12c6.616 0 12-5.383 12-12S18.616 0 12 0"></path></g></svg>