<?xml version="1.0" encoding="utf-8"?>
<!-- Generator: Adobe Illustrator 18.0.0, SVG Export Plug-In . SVG Version: 6.00 Build 0)  -->
<!DOCTYPE svg PUBLIC "-//W3C//DTD SVG 1.1//EN" "http://www.w3.org/Graphics/SVG/1.1/DTD/svg11.dtd">
<svg version="1.1" id="Layer_1" xmlns="http://www.w3.org/2000/svg" xmlns:xlink="http://www.w3.org/1999/xlink" x="0px" y="0px"
	 viewBox="0 0 58.5 58.5" enable-background="new 0 0 58.5 58.5" xml:space="preserve">
<path fill="#FFFFFF" d="M34,11h-7v4.9c-1,0.3-3.3,0.8-4.6,1.7l-4-4l-4.1,4.1l4,3.8c-0.9,1.4-1.5,2.7-1.8,4.5l-4,0l0,6.4l4.2,0
	c0.4,1.8,1,2.9,1.8,4.2l-3.8,3.8l4.1,4l3.7-3.9c1.5,0.9,3.7,1.6,4.7,1.9V47h7v-4.7c1-0.4,2.3-1,3.6-1.8l3.6,3.8l3.9-4.1l-3.9-3.3
	c0.9-1.4,1.5-3.1,1.8-4.1h5v-8h-5.1c-0.4-1-1-2.4-1.8-3.7l3.8-3.6l-4.1-3.9l-3.2,3.9c-1.3-0.9-2.8-1.4-3.8-1.8V11z M39.2,29.2
	c0,5.2-4.2,9.4-9.4,9.4s-9.4-4.2-9.4-9.4s4.2-9.4,9.4-9.4S39.2,24,39.2,29.2z"/>
<circle display="none" fill="none" stroke="#00FFFF" stroke-width="2" stroke-miterlimit="10" cx="29.3" cy="29.3" r="28.3"/>
</svg>
