<?xml version="1.0" encoding="utf-8"?>
<!-- Generator: Adobe Illustrator 18.0.0, SVG Export Plug-In . SVG Version: 6.00 Build 0)  -->
<!DOCTYPE svg PUBLIC "-//W3C//DTD SVG 1.1//EN" "http://www.w3.org/Graphics/SVG/1.1/DTD/svg11.dtd">
<svg version="1.1" id="Layer_1" xmlns="http://www.w3.org/2000/svg" xmlns:xlink="http://www.w3.org/1999/xlink" x="0px" y="0px"
	 viewBox="0 0 58.5 58.5" enable-background="new 0 0 58.5 58.5" xml:space="preserve">
<g>
	<path fill="#FFFFFF" d="M36.2,36.7l-7.7-10.1l-8.3,9.6l-8.5-4.7l1.5-2.7l6.2,3.4l9.1-10.6l7.9,10.2L43,25v-4c0-1.4-1.5-2-2.9-2
		H11.9c-1.4,0-1.9,0.6-1.9,2v20.5c0,1.4,0.5,2.6,1.9,2.6h28.2c1.4,0,2.9-1.2,2.9-2.6V29.6L36.2,36.7z"/>
	<polygon fill="#FFFFFF" points="52.5,19.2 50.3,17.1 43,25 43,29.6 	"/>
</g>
<circle display="none" fill="none" stroke="#00FFFF" stroke-width="2" stroke-miterlimit="10" cx="29.3" cy="29.3" r="28.3"/>
</svg>
