<?xml version="1.0" encoding="utf-8"?>
<!-- Generator: Adobe Illustrator 18.0.0, SVG Export Plug-In . SVG Version: 6.00 Build 0)  -->
<!DOCTYPE svg PUBLIC "-//W3C//DTD SVG 1.1//EN" "http://www.w3.org/Graphics/SVG/1.1/DTD/svg11.dtd">
<svg version="1.1" id="Layer_1" xmlns="http://www.w3.org/2000/svg" xmlns:xlink="http://www.w3.org/1999/xlink" x="0px" y="0px"
	 viewBox="0 0 58.5 58.5" enable-background="new 0 0 58.5 58.5" xml:space="preserve">
<path fill="#FFFFFF" d="M29.6,10.5c-11.4,0-20.7,8.2-20.7,18.4c0,4.9,2.1,9.2,5.6,12.6c-0.5,1.4-1.4,2.8-3,3c0,0,4.4,2.3,7.7,0.3
	c3.1,1.6,6.6,2.5,10.4,2.5c11.4,0,20.7-8.2,20.7-18.4S41,10.5,29.6,10.5z M30.4,38.8c-0.4,0.4-1,0.6-1.8,0.6c-0.8,0-1.4-0.2-1.8-0.6
	c-0.4-0.4-0.6-1-0.6-1.7c0-0.8,0.2-1.3,0.6-1.7c0.4-0.4,1-0.6,1.8-0.6c0.8,0,1.3,0.2,1.8,0.6c0.4,0.4,0.6,1,0.6,1.7
	C31,37.8,30.8,38.4,30.4,38.8z M34.9,26.3c-0.5,0.7-1.3,1.6-2.6,2.5c-0.9,0.6-0.6,1.1-0.8,1.5C31.3,30.6,32,31,32,31.6V32h-5v-0.6
	c0-0.9,0-1.6,0.4-2.3c0.4-0.6,1-1.3,2-2.1c1-0.7,1.5-1.2,1.9-1.7c0.3-0.4,0.4-0.9,0.4-1.4c0-0.6-0.2-1-0.7-1.4
	c-0.4-0.3-1.1-0.5-1.8-0.5c-1.4,0-2.9,0.4-4.7,1.3l-1.5-3c2-1.1,4.2-1.7,6.5-1.7c1.9,0,3.4,0.5,4.5,1.4c1.1,0.9,1.7,2.1,1.7,3.6
	C35.6,24.7,35.4,25.6,34.9,26.3z"/>
<circle display="none" fill="none" stroke="#00FFFF" stroke-width="2" stroke-miterlimit="10" cx="29.3" cy="29.3" r="28.3"/>
</svg>
